%FSLAX34Y34*%
G04 Gerber Fmt 3.4, Leading zero omitted, Abs format*
G04 (created by PCBNEW (2014-02-26 BZR 4721)-product) date Wednesday, 27 May 2015 16:47:43*
%MOIN*%
G01*
G70*
G90*
G04 APERTURE LIST*
%ADD10C,0.005906*%
%ADD11C,0.009843*%
%ADD12C,0.011811*%
%ADD13C,0.012000*%
%ADD14C,0.006000*%
%ADD15C,0.015000*%
%ADD16C,0.008000*%
%ADD17C,0.011250*%
G04 APERTURE END LIST*
G54D10*
G54D11*
X61961Y-50571D02*
X61998Y-50571D01*
X62035Y-50590D01*
X62054Y-50609D01*
X62073Y-50646D01*
X62092Y-50721D01*
X62092Y-50815D01*
X62073Y-50890D01*
X62054Y-50928D01*
X62035Y-50946D01*
X61998Y-50965D01*
X61961Y-50965D01*
X61923Y-50946D01*
X61904Y-50928D01*
X61886Y-50890D01*
X61867Y-50815D01*
X61867Y-50721D01*
X61886Y-50646D01*
X61904Y-50609D01*
X61923Y-50590D01*
X61961Y-50571D01*
X62260Y-50928D02*
X62279Y-50946D01*
X62260Y-50965D01*
X62242Y-50946D01*
X62260Y-50928D01*
X62260Y-50965D01*
X62523Y-50571D02*
X62560Y-50571D01*
X62598Y-50590D01*
X62617Y-50609D01*
X62635Y-50646D01*
X62654Y-50721D01*
X62654Y-50815D01*
X62635Y-50890D01*
X62617Y-50928D01*
X62598Y-50946D01*
X62560Y-50965D01*
X62523Y-50965D01*
X62485Y-50946D01*
X62467Y-50928D01*
X62448Y-50890D01*
X62429Y-50815D01*
X62429Y-50721D01*
X62448Y-50646D01*
X62467Y-50609D01*
X62485Y-50590D01*
X62523Y-50571D01*
X63029Y-50965D02*
X62804Y-50965D01*
X62917Y-50965D02*
X62917Y-50571D01*
X62879Y-50628D01*
X62842Y-50665D01*
X62804Y-50684D01*
X63367Y-50703D02*
X63367Y-50965D01*
X63198Y-50703D02*
X63198Y-50909D01*
X63217Y-50946D01*
X63254Y-50965D01*
X63310Y-50965D01*
X63348Y-50946D01*
X63367Y-50928D01*
X63685Y-50759D02*
X63554Y-50759D01*
X63554Y-50965D02*
X63554Y-50571D01*
X63742Y-50571D01*
X51518Y-43878D02*
X51556Y-43878D01*
X51593Y-43897D01*
X51612Y-43916D01*
X51631Y-43953D01*
X51649Y-44028D01*
X51649Y-44122D01*
X51631Y-44197D01*
X51612Y-44235D01*
X51593Y-44253D01*
X51556Y-44272D01*
X51518Y-44272D01*
X51481Y-44253D01*
X51462Y-44235D01*
X51443Y-44197D01*
X51424Y-44122D01*
X51424Y-44028D01*
X51443Y-43953D01*
X51462Y-43916D01*
X51481Y-43897D01*
X51518Y-43878D01*
X51818Y-44235D02*
X51837Y-44253D01*
X51818Y-44272D01*
X51799Y-44253D01*
X51818Y-44235D01*
X51818Y-44272D01*
X52212Y-44272D02*
X51987Y-44272D01*
X52099Y-44272D02*
X52099Y-43878D01*
X52062Y-43935D01*
X52024Y-43972D01*
X51987Y-43991D01*
X52549Y-44010D02*
X52549Y-44272D01*
X52380Y-44010D02*
X52380Y-44216D01*
X52399Y-44253D01*
X52437Y-44272D01*
X52493Y-44272D01*
X52530Y-44253D01*
X52549Y-44235D01*
X52868Y-44066D02*
X52737Y-44066D01*
X52737Y-44272D02*
X52737Y-43878D01*
X52924Y-43878D01*
X50928Y-48209D02*
X50965Y-48209D01*
X51003Y-48228D01*
X51021Y-48247D01*
X51040Y-48284D01*
X51059Y-48359D01*
X51059Y-48453D01*
X51040Y-48528D01*
X51021Y-48565D01*
X51003Y-48584D01*
X50965Y-48603D01*
X50928Y-48603D01*
X50890Y-48584D01*
X50871Y-48565D01*
X50853Y-48528D01*
X50834Y-48453D01*
X50834Y-48359D01*
X50853Y-48284D01*
X50871Y-48247D01*
X50890Y-48228D01*
X50928Y-48209D01*
X51227Y-48565D02*
X51246Y-48584D01*
X51227Y-48603D01*
X51209Y-48584D01*
X51227Y-48565D01*
X51227Y-48603D01*
X51621Y-48603D02*
X51396Y-48603D01*
X51509Y-48603D02*
X51509Y-48209D01*
X51471Y-48265D01*
X51434Y-48303D01*
X51396Y-48322D01*
X51959Y-48340D02*
X51959Y-48603D01*
X51790Y-48340D02*
X51790Y-48547D01*
X51809Y-48584D01*
X51846Y-48603D01*
X51902Y-48603D01*
X51940Y-48584D01*
X51959Y-48565D01*
X52277Y-48397D02*
X52146Y-48397D01*
X52146Y-48603D02*
X52146Y-48209D01*
X52334Y-48209D01*
X59992Y-47422D02*
X60029Y-47422D01*
X60067Y-47440D01*
X60086Y-47459D01*
X60104Y-47497D01*
X60123Y-47572D01*
X60123Y-47665D01*
X60104Y-47740D01*
X60086Y-47778D01*
X60067Y-47797D01*
X60029Y-47815D01*
X59992Y-47815D01*
X59955Y-47797D01*
X59936Y-47778D01*
X59917Y-47740D01*
X59898Y-47665D01*
X59898Y-47572D01*
X59917Y-47497D01*
X59936Y-47459D01*
X59955Y-47440D01*
X59992Y-47422D01*
X60292Y-47778D02*
X60311Y-47797D01*
X60292Y-47815D01*
X60273Y-47797D01*
X60292Y-47778D01*
X60292Y-47815D01*
X60554Y-47422D02*
X60592Y-47422D01*
X60629Y-47440D01*
X60648Y-47459D01*
X60667Y-47497D01*
X60686Y-47572D01*
X60686Y-47665D01*
X60667Y-47740D01*
X60648Y-47778D01*
X60629Y-47797D01*
X60592Y-47815D01*
X60554Y-47815D01*
X60517Y-47797D01*
X60498Y-47778D01*
X60479Y-47740D01*
X60461Y-47665D01*
X60461Y-47572D01*
X60479Y-47497D01*
X60498Y-47459D01*
X60517Y-47440D01*
X60554Y-47422D01*
X61061Y-47815D02*
X60836Y-47815D01*
X60948Y-47815D02*
X60948Y-47422D01*
X60911Y-47478D01*
X60873Y-47515D01*
X60836Y-47534D01*
X61398Y-47553D02*
X61398Y-47815D01*
X61229Y-47553D02*
X61229Y-47759D01*
X61248Y-47797D01*
X61286Y-47815D01*
X61342Y-47815D01*
X61379Y-47797D01*
X61398Y-47778D01*
X61717Y-47609D02*
X61586Y-47609D01*
X61586Y-47815D02*
X61586Y-47422D01*
X61773Y-47422D01*
X60179Y-44469D02*
X60217Y-44469D01*
X60254Y-44488D01*
X60273Y-44506D01*
X60292Y-44544D01*
X60311Y-44619D01*
X60311Y-44713D01*
X60292Y-44788D01*
X60273Y-44825D01*
X60254Y-44844D01*
X60217Y-44863D01*
X60179Y-44863D01*
X60142Y-44844D01*
X60123Y-44825D01*
X60104Y-44788D01*
X60086Y-44713D01*
X60086Y-44619D01*
X60104Y-44544D01*
X60123Y-44506D01*
X60142Y-44488D01*
X60179Y-44469D01*
X60479Y-44825D02*
X60498Y-44844D01*
X60479Y-44863D01*
X60461Y-44844D01*
X60479Y-44825D01*
X60479Y-44863D01*
X60873Y-44863D02*
X60648Y-44863D01*
X60761Y-44863D02*
X60761Y-44469D01*
X60723Y-44525D01*
X60686Y-44563D01*
X60648Y-44581D01*
X61211Y-44600D02*
X61211Y-44863D01*
X61042Y-44600D02*
X61042Y-44806D01*
X61061Y-44844D01*
X61098Y-44863D01*
X61154Y-44863D01*
X61192Y-44844D01*
X61211Y-44825D01*
X61529Y-44656D02*
X61398Y-44656D01*
X61398Y-44863D02*
X61398Y-44469D01*
X61586Y-44469D01*
X63535Y-39154D02*
X63573Y-39154D01*
X63610Y-39173D01*
X63629Y-39191D01*
X63648Y-39229D01*
X63667Y-39304D01*
X63667Y-39398D01*
X63648Y-39473D01*
X63629Y-39510D01*
X63610Y-39529D01*
X63573Y-39548D01*
X63535Y-39548D01*
X63498Y-39529D01*
X63479Y-39510D01*
X63460Y-39473D01*
X63442Y-39398D01*
X63442Y-39304D01*
X63460Y-39229D01*
X63479Y-39191D01*
X63498Y-39173D01*
X63535Y-39154D01*
X63835Y-39510D02*
X63854Y-39529D01*
X63835Y-39548D01*
X63817Y-39529D01*
X63835Y-39510D01*
X63835Y-39548D01*
X64098Y-39154D02*
X64135Y-39154D01*
X64173Y-39173D01*
X64191Y-39191D01*
X64210Y-39229D01*
X64229Y-39304D01*
X64229Y-39398D01*
X64210Y-39473D01*
X64191Y-39510D01*
X64173Y-39529D01*
X64135Y-39548D01*
X64098Y-39548D01*
X64060Y-39529D01*
X64041Y-39510D01*
X64023Y-39473D01*
X64004Y-39398D01*
X64004Y-39304D01*
X64023Y-39229D01*
X64041Y-39191D01*
X64060Y-39173D01*
X64098Y-39154D01*
X64604Y-39548D02*
X64379Y-39548D01*
X64491Y-39548D02*
X64491Y-39154D01*
X64454Y-39210D01*
X64416Y-39248D01*
X64379Y-39266D01*
X64941Y-39285D02*
X64941Y-39548D01*
X64773Y-39285D02*
X64773Y-39491D01*
X64791Y-39529D01*
X64829Y-39548D01*
X64885Y-39548D01*
X64923Y-39529D01*
X64941Y-39510D01*
X65260Y-39341D02*
X65129Y-39341D01*
X65129Y-39548D02*
X65129Y-39154D01*
X65316Y-39154D01*
X51696Y-49193D02*
X51471Y-49193D01*
X51584Y-49193D02*
X51584Y-48800D01*
X51546Y-48856D01*
X51509Y-48893D01*
X51471Y-48912D01*
X51940Y-48800D02*
X51977Y-48800D01*
X52015Y-48818D01*
X52034Y-48837D01*
X52052Y-48875D01*
X52071Y-48950D01*
X52071Y-49043D01*
X52052Y-49118D01*
X52034Y-49156D01*
X52015Y-49175D01*
X51977Y-49193D01*
X51940Y-49193D01*
X51902Y-49175D01*
X51884Y-49156D01*
X51865Y-49118D01*
X51846Y-49043D01*
X51846Y-48950D01*
X51865Y-48875D01*
X51884Y-48837D01*
X51902Y-48818D01*
X51940Y-48800D01*
X52240Y-49193D02*
X52240Y-48800D01*
X52465Y-49193D02*
X52296Y-48968D01*
X52465Y-48800D02*
X52240Y-49025D01*
X64548Y-46916D02*
X64548Y-47140D01*
X64548Y-47028D02*
X64154Y-47028D01*
X64210Y-47065D01*
X64248Y-47103D01*
X64266Y-47140D01*
X64154Y-46672D02*
X64154Y-46634D01*
X64173Y-46597D01*
X64191Y-46578D01*
X64229Y-46559D01*
X64304Y-46541D01*
X64398Y-46541D01*
X64473Y-46559D01*
X64510Y-46578D01*
X64529Y-46597D01*
X64548Y-46634D01*
X64548Y-46672D01*
X64529Y-46709D01*
X64510Y-46728D01*
X64473Y-46747D01*
X64398Y-46766D01*
X64304Y-46766D01*
X64229Y-46747D01*
X64191Y-46728D01*
X64173Y-46709D01*
X64154Y-46672D01*
X64154Y-46297D02*
X64154Y-46259D01*
X64173Y-46222D01*
X64191Y-46203D01*
X64229Y-46184D01*
X64304Y-46166D01*
X64398Y-46166D01*
X64473Y-46184D01*
X64510Y-46203D01*
X64529Y-46222D01*
X64548Y-46259D01*
X64548Y-46297D01*
X64529Y-46334D01*
X64510Y-46353D01*
X64473Y-46372D01*
X64398Y-46391D01*
X64304Y-46391D01*
X64229Y-46372D01*
X64191Y-46353D01*
X64173Y-46334D01*
X64154Y-46297D01*
X64548Y-45997D02*
X64154Y-45997D01*
X64548Y-45772D02*
X64323Y-45941D01*
X64154Y-45772D02*
X64379Y-45997D01*
X61698Y-48997D02*
X61473Y-48997D01*
X61586Y-48997D02*
X61586Y-48603D01*
X61548Y-48659D01*
X61511Y-48697D01*
X61473Y-48715D01*
X61867Y-48997D02*
X61867Y-48603D01*
X61998Y-48884D01*
X62129Y-48603D01*
X62129Y-48997D01*
X61707Y-51949D02*
X61482Y-51949D01*
X61595Y-51949D02*
X61595Y-51556D01*
X61557Y-51612D01*
X61520Y-51649D01*
X61482Y-51668D01*
X61951Y-51556D02*
X61989Y-51556D01*
X62026Y-51574D01*
X62045Y-51593D01*
X62064Y-51631D01*
X62082Y-51706D01*
X62082Y-51799D01*
X62064Y-51874D01*
X62045Y-51912D01*
X62026Y-51931D01*
X61989Y-51949D01*
X61951Y-51949D01*
X61914Y-51931D01*
X61895Y-51912D01*
X61876Y-51874D01*
X61857Y-51799D01*
X61857Y-51706D01*
X61876Y-51631D01*
X61895Y-51593D01*
X61914Y-51574D01*
X61951Y-51556D01*
X62251Y-51949D02*
X62251Y-51556D01*
X62382Y-51837D01*
X62514Y-51556D01*
X62514Y-51949D01*
X56214Y-51949D02*
X55989Y-51949D01*
X56102Y-51949D02*
X56102Y-51556D01*
X56064Y-51612D01*
X56027Y-51649D01*
X55989Y-51668D01*
X56383Y-51949D02*
X56383Y-51556D01*
X56608Y-51949D02*
X56439Y-51724D01*
X56608Y-51556D02*
X56383Y-51781D01*
X50703Y-51949D02*
X50478Y-51949D01*
X50590Y-51949D02*
X50590Y-51556D01*
X50553Y-51612D01*
X50515Y-51649D01*
X50478Y-51668D01*
X50871Y-51949D02*
X50871Y-51556D01*
X51096Y-51949D02*
X50928Y-51724D01*
X51096Y-51556D02*
X50871Y-51781D01*
X62907Y-43091D02*
X62682Y-43091D01*
X62795Y-43091D02*
X62795Y-42697D01*
X62757Y-42754D01*
X62720Y-42791D01*
X62682Y-42810D01*
X63076Y-43091D02*
X63076Y-42697D01*
X63301Y-43091D02*
X63132Y-42866D01*
X63301Y-42697D02*
X63076Y-42922D01*
X62682Y-41647D02*
X62682Y-41910D01*
X62589Y-41497D02*
X62495Y-41779D01*
X62739Y-41779D01*
X62851Y-41516D02*
X63113Y-41516D01*
X62945Y-41910D01*
X63263Y-41910D02*
X63263Y-41516D01*
X63488Y-41910D02*
X63320Y-41685D01*
X63488Y-41516D02*
X63263Y-41741D01*
X62289Y-37973D02*
X62064Y-37973D01*
X62176Y-37973D02*
X62176Y-37579D01*
X62139Y-37635D01*
X62101Y-37673D01*
X62064Y-37692D01*
X62457Y-37973D02*
X62457Y-37579D01*
X62589Y-37860D01*
X62720Y-37579D01*
X62720Y-37973D01*
X51434Y-46278D02*
X51452Y-46259D01*
X51490Y-46241D01*
X51584Y-46241D01*
X51621Y-46259D01*
X51640Y-46278D01*
X51659Y-46316D01*
X51659Y-46353D01*
X51640Y-46409D01*
X51415Y-46634D01*
X51659Y-46634D01*
X51827Y-46634D02*
X51827Y-46241D01*
X51959Y-46522D01*
X52090Y-46241D01*
X52090Y-46634D01*
X51865Y-41516D02*
X51640Y-41516D01*
X51752Y-41516D02*
X51752Y-41122D01*
X51715Y-41179D01*
X51677Y-41216D01*
X51640Y-41235D01*
X52109Y-41122D02*
X52146Y-41122D01*
X52184Y-41141D01*
X52202Y-41160D01*
X52221Y-41197D01*
X52240Y-41272D01*
X52240Y-41366D01*
X52221Y-41441D01*
X52202Y-41479D01*
X52184Y-41497D01*
X52146Y-41516D01*
X52109Y-41516D01*
X52071Y-41497D01*
X52052Y-41479D01*
X52034Y-41441D01*
X52015Y-41366D01*
X52015Y-41272D01*
X52034Y-41197D01*
X52052Y-41160D01*
X52071Y-41141D01*
X52109Y-41122D01*
X52409Y-41516D02*
X52409Y-41122D01*
X52540Y-41404D01*
X52671Y-41122D01*
X52671Y-41516D01*
X51865Y-39941D02*
X51640Y-39941D01*
X51752Y-39941D02*
X51752Y-39548D01*
X51715Y-39604D01*
X51677Y-39641D01*
X51640Y-39660D01*
X52109Y-39548D02*
X52146Y-39548D01*
X52184Y-39566D01*
X52202Y-39585D01*
X52221Y-39623D01*
X52240Y-39698D01*
X52240Y-39791D01*
X52221Y-39866D01*
X52202Y-39904D01*
X52184Y-39923D01*
X52146Y-39941D01*
X52109Y-39941D01*
X52071Y-39923D01*
X52052Y-39904D01*
X52034Y-39866D01*
X52015Y-39791D01*
X52015Y-39698D01*
X52034Y-39623D01*
X52052Y-39585D01*
X52071Y-39566D01*
X52109Y-39548D01*
X52409Y-39941D02*
X52409Y-39548D01*
X52540Y-39829D01*
X52671Y-39548D01*
X52671Y-39941D01*
G54D12*
X53515Y-53979D02*
X53965Y-53979D01*
X53740Y-54204D02*
X53740Y-53754D01*
X58830Y-54176D02*
X59280Y-54176D01*
X59055Y-54401D02*
X59055Y-53951D01*
X49971Y-37443D02*
X50421Y-37443D01*
X50196Y-37668D02*
X50196Y-37218D01*
X66901Y-42955D02*
X67350Y-42955D01*
X67125Y-43180D02*
X67125Y-42730D01*
G54D11*
X50993Y-50965D02*
X50862Y-50778D01*
X50768Y-50965D02*
X50768Y-50571D01*
X50918Y-50571D01*
X50956Y-50590D01*
X50974Y-50609D01*
X50993Y-50646D01*
X50993Y-50703D01*
X50974Y-50740D01*
X50956Y-50759D01*
X50918Y-50778D01*
X50768Y-50778D01*
X51331Y-50965D02*
X51331Y-50759D01*
X51312Y-50721D01*
X51274Y-50703D01*
X51199Y-50703D01*
X51162Y-50721D01*
X51331Y-50946D02*
X51293Y-50965D01*
X51199Y-50965D01*
X51162Y-50946D01*
X51143Y-50909D01*
X51143Y-50871D01*
X51162Y-50834D01*
X51199Y-50815D01*
X51293Y-50815D01*
X51331Y-50796D01*
X51518Y-50703D02*
X51518Y-50965D01*
X51518Y-50740D02*
X51537Y-50721D01*
X51574Y-50703D01*
X51631Y-50703D01*
X51668Y-50721D01*
X51687Y-50759D01*
X51687Y-50965D01*
X52043Y-50703D02*
X52043Y-51021D01*
X52024Y-51059D01*
X52005Y-51077D01*
X51968Y-51096D01*
X51912Y-51096D01*
X51874Y-51077D01*
X52043Y-50946D02*
X52005Y-50965D01*
X51931Y-50965D01*
X51893Y-50946D01*
X51874Y-50928D01*
X51856Y-50890D01*
X51856Y-50778D01*
X51874Y-50740D01*
X51893Y-50721D01*
X51931Y-50703D01*
X52005Y-50703D01*
X52043Y-50721D01*
X52380Y-50946D02*
X52343Y-50965D01*
X52268Y-50965D01*
X52230Y-50946D01*
X52212Y-50909D01*
X52212Y-50759D01*
X52230Y-50721D01*
X52268Y-50703D01*
X52343Y-50703D01*
X52380Y-50721D01*
X52399Y-50759D01*
X52399Y-50796D01*
X52212Y-50834D01*
X48062Y-49043D02*
X48081Y-48987D01*
X48081Y-48893D01*
X48062Y-48856D01*
X48044Y-48837D01*
X48006Y-48818D01*
X47969Y-48818D01*
X47931Y-48837D01*
X47912Y-48856D01*
X47894Y-48893D01*
X47875Y-48968D01*
X47856Y-49006D01*
X47837Y-49025D01*
X47800Y-49043D01*
X47762Y-49043D01*
X47725Y-49025D01*
X47706Y-49006D01*
X47687Y-48968D01*
X47687Y-48875D01*
X47706Y-48818D01*
X47819Y-48687D02*
X48081Y-48593D01*
X47819Y-48500D02*
X48081Y-48593D01*
X48175Y-48631D01*
X48194Y-48650D01*
X48212Y-48687D01*
X47819Y-48350D02*
X48081Y-48350D01*
X47856Y-48350D02*
X47837Y-48331D01*
X47819Y-48293D01*
X47819Y-48237D01*
X47837Y-48200D01*
X47875Y-48181D01*
X48081Y-48181D01*
X47819Y-48050D02*
X47819Y-47900D01*
X47687Y-47994D02*
X48025Y-47994D01*
X48062Y-47975D01*
X48081Y-47937D01*
X48081Y-47900D01*
X48081Y-47769D02*
X47687Y-47769D01*
X48081Y-47600D02*
X47875Y-47600D01*
X47837Y-47619D01*
X47819Y-47656D01*
X47819Y-47712D01*
X47837Y-47750D01*
X47856Y-47769D01*
X48081Y-47112D02*
X47687Y-47112D01*
X47687Y-47019D01*
X47706Y-46962D01*
X47744Y-46925D01*
X47781Y-46906D01*
X47856Y-46887D01*
X47912Y-46887D01*
X47987Y-46906D01*
X48025Y-46925D01*
X48062Y-46962D01*
X48081Y-47019D01*
X48081Y-47112D01*
X48081Y-46719D02*
X47819Y-46719D01*
X47894Y-46719D02*
X47856Y-46700D01*
X47837Y-46681D01*
X47819Y-46644D01*
X47819Y-46606D01*
X47819Y-46306D02*
X48081Y-46306D01*
X47819Y-46475D02*
X48025Y-46475D01*
X48062Y-46456D01*
X48081Y-46419D01*
X48081Y-46362D01*
X48062Y-46325D01*
X48044Y-46306D01*
X48081Y-46119D02*
X47819Y-46119D01*
X47856Y-46119D02*
X47837Y-46100D01*
X47819Y-46062D01*
X47819Y-46006D01*
X47837Y-45969D01*
X47875Y-45950D01*
X48081Y-45950D01*
X47875Y-45950D02*
X47837Y-45931D01*
X47819Y-45894D01*
X47819Y-45838D01*
X47837Y-45800D01*
X47875Y-45781D01*
X48081Y-45781D01*
X47687Y-45350D02*
X47687Y-45125D01*
X48081Y-45238D02*
X47687Y-45238D01*
X48081Y-44994D02*
X47819Y-44994D01*
X47894Y-44994D02*
X47856Y-44975D01*
X47837Y-44956D01*
X47819Y-44919D01*
X47819Y-44881D01*
X48081Y-44750D02*
X47819Y-44750D01*
X47687Y-44750D02*
X47706Y-44769D01*
X47725Y-44750D01*
X47706Y-44731D01*
X47687Y-44750D01*
X47725Y-44750D01*
X47819Y-44394D02*
X48137Y-44394D01*
X48175Y-44413D01*
X48194Y-44431D01*
X48212Y-44469D01*
X48212Y-44525D01*
X48194Y-44563D01*
X48062Y-44394D02*
X48081Y-44431D01*
X48081Y-44506D01*
X48062Y-44544D01*
X48044Y-44563D01*
X48006Y-44581D01*
X47894Y-44581D01*
X47856Y-44563D01*
X47837Y-44544D01*
X47819Y-44506D01*
X47819Y-44431D01*
X47837Y-44394D01*
X47819Y-44038D02*
X48137Y-44038D01*
X48175Y-44056D01*
X48194Y-44075D01*
X48212Y-44113D01*
X48212Y-44169D01*
X48194Y-44206D01*
X48062Y-44038D02*
X48081Y-44075D01*
X48081Y-44150D01*
X48062Y-44188D01*
X48044Y-44206D01*
X48006Y-44225D01*
X47894Y-44225D01*
X47856Y-44206D01*
X47837Y-44188D01*
X47819Y-44150D01*
X47819Y-44075D01*
X47837Y-44038D01*
X48062Y-43700D02*
X48081Y-43738D01*
X48081Y-43813D01*
X48062Y-43850D01*
X48025Y-43869D01*
X47875Y-43869D01*
X47837Y-43850D01*
X47819Y-43813D01*
X47819Y-43738D01*
X47837Y-43700D01*
X47875Y-43682D01*
X47912Y-43682D01*
X47950Y-43869D01*
X48081Y-43513D02*
X47819Y-43513D01*
X47894Y-43513D02*
X47856Y-43494D01*
X47837Y-43475D01*
X47819Y-43438D01*
X47819Y-43400D01*
X47819Y-43007D02*
X48081Y-42913D01*
X47819Y-42819D01*
X48081Y-42463D02*
X48081Y-42688D01*
X48081Y-42575D02*
X47687Y-42575D01*
X47744Y-42613D01*
X47781Y-42650D01*
X47800Y-42688D01*
X48044Y-42294D02*
X48062Y-42275D01*
X48081Y-42294D01*
X48062Y-42313D01*
X48044Y-42294D01*
X48081Y-42294D01*
X47687Y-42032D02*
X47687Y-41994D01*
X47706Y-41957D01*
X47725Y-41938D01*
X47762Y-41919D01*
X47837Y-41901D01*
X47931Y-41901D01*
X48006Y-41919D01*
X48044Y-41938D01*
X48062Y-41957D01*
X48081Y-41994D01*
X48081Y-42032D01*
X48062Y-42069D01*
X48044Y-42088D01*
X48006Y-42107D01*
X47931Y-42125D01*
X47837Y-42125D01*
X47762Y-42107D01*
X47725Y-42088D01*
X47706Y-42069D01*
X47687Y-42032D01*
X48731Y-49090D02*
X48337Y-49090D01*
X48337Y-48997D01*
X48356Y-48940D01*
X48393Y-48903D01*
X48431Y-48884D01*
X48506Y-48865D01*
X48562Y-48865D01*
X48637Y-48884D01*
X48675Y-48903D01*
X48712Y-48940D01*
X48731Y-48997D01*
X48731Y-49090D01*
X48768Y-48134D02*
X48750Y-48172D01*
X48712Y-48209D01*
X48656Y-48265D01*
X48637Y-48303D01*
X48637Y-48340D01*
X48731Y-48322D02*
X48712Y-48359D01*
X48675Y-48397D01*
X48600Y-48415D01*
X48468Y-48415D01*
X48393Y-48397D01*
X48356Y-48359D01*
X48337Y-48322D01*
X48337Y-48247D01*
X48356Y-48209D01*
X48393Y-48172D01*
X48468Y-48153D01*
X48600Y-48153D01*
X48675Y-48172D01*
X48712Y-48209D01*
X48731Y-48247D01*
X48731Y-48322D01*
X48731Y-47684D02*
X48337Y-47684D01*
X48618Y-47553D01*
X48337Y-47422D01*
X48731Y-47422D01*
X48712Y-47065D02*
X48731Y-47103D01*
X48731Y-47178D01*
X48712Y-47215D01*
X48693Y-47234D01*
X48656Y-47253D01*
X48543Y-47253D01*
X48506Y-47234D01*
X48487Y-47215D01*
X48468Y-47178D01*
X48468Y-47103D01*
X48487Y-47065D01*
X48731Y-46897D02*
X48337Y-46897D01*
X48337Y-46803D01*
X48356Y-46747D01*
X48393Y-46709D01*
X48431Y-46691D01*
X48506Y-46672D01*
X48562Y-46672D01*
X48637Y-46691D01*
X48675Y-46709D01*
X48712Y-46747D01*
X48731Y-46803D01*
X48731Y-46897D01*
X48731Y-46447D02*
X48712Y-46484D01*
X48693Y-46503D01*
X48656Y-46522D01*
X48543Y-46522D01*
X48506Y-46503D01*
X48487Y-46484D01*
X48468Y-46447D01*
X48468Y-46391D01*
X48487Y-46353D01*
X48506Y-46334D01*
X48543Y-46316D01*
X48656Y-46316D01*
X48693Y-46334D01*
X48712Y-46353D01*
X48731Y-46391D01*
X48731Y-46447D01*
X48468Y-46147D02*
X48731Y-46147D01*
X48506Y-46147D02*
X48487Y-46128D01*
X48468Y-46091D01*
X48468Y-46034D01*
X48487Y-45997D01*
X48525Y-45978D01*
X48731Y-45978D01*
X48731Y-45622D02*
X48525Y-45622D01*
X48487Y-45641D01*
X48468Y-45678D01*
X48468Y-45753D01*
X48487Y-45791D01*
X48712Y-45622D02*
X48731Y-45659D01*
X48731Y-45753D01*
X48712Y-45791D01*
X48675Y-45809D01*
X48637Y-45809D01*
X48600Y-45791D01*
X48581Y-45753D01*
X48581Y-45659D01*
X48562Y-45622D01*
X48731Y-45378D02*
X48712Y-45416D01*
X48675Y-45434D01*
X48337Y-45434D01*
X48731Y-45059D02*
X48337Y-45059D01*
X48712Y-45059D02*
X48731Y-45097D01*
X48731Y-45172D01*
X48712Y-45209D01*
X48693Y-45228D01*
X48656Y-45247D01*
X48543Y-45247D01*
X48506Y-45228D01*
X48487Y-45209D01*
X48468Y-45172D01*
X48468Y-45097D01*
X48487Y-45059D01*
X48731Y-44572D02*
X48337Y-44572D01*
X48618Y-44441D01*
X48337Y-44310D01*
X48731Y-44310D01*
X48731Y-43953D02*
X48525Y-43953D01*
X48487Y-43972D01*
X48468Y-44010D01*
X48468Y-44085D01*
X48487Y-44122D01*
X48712Y-43953D02*
X48731Y-43991D01*
X48731Y-44085D01*
X48712Y-44122D01*
X48675Y-44141D01*
X48637Y-44141D01*
X48600Y-44122D01*
X48581Y-44085D01*
X48581Y-43991D01*
X48562Y-43953D01*
X48468Y-43803D02*
X48731Y-43710D01*
X48468Y-43616D02*
X48731Y-43710D01*
X48824Y-43747D01*
X48843Y-43766D01*
X48862Y-43803D01*
X48375Y-43185D02*
X48356Y-43166D01*
X48337Y-43128D01*
X48337Y-43035D01*
X48356Y-42997D01*
X48375Y-42979D01*
X48412Y-42960D01*
X48450Y-42960D01*
X48506Y-42979D01*
X48731Y-43203D01*
X48731Y-42960D01*
X48337Y-42716D02*
X48337Y-42679D01*
X48356Y-42641D01*
X48375Y-42622D01*
X48412Y-42604D01*
X48487Y-42585D01*
X48581Y-42585D01*
X48656Y-42604D01*
X48693Y-42622D01*
X48712Y-42641D01*
X48731Y-42679D01*
X48731Y-42716D01*
X48712Y-42754D01*
X48693Y-42772D01*
X48656Y-42791D01*
X48581Y-42810D01*
X48487Y-42810D01*
X48412Y-42791D01*
X48375Y-42772D01*
X48356Y-42754D01*
X48337Y-42716D01*
X48731Y-42210D02*
X48731Y-42435D01*
X48731Y-42322D02*
X48337Y-42322D01*
X48393Y-42360D01*
X48431Y-42397D01*
X48450Y-42435D01*
X48337Y-41854D02*
X48337Y-42041D01*
X48525Y-42060D01*
X48506Y-42041D01*
X48487Y-42004D01*
X48487Y-41910D01*
X48506Y-41872D01*
X48525Y-41854D01*
X48562Y-41835D01*
X48656Y-41835D01*
X48693Y-41854D01*
X48712Y-41872D01*
X48731Y-41910D01*
X48731Y-42004D01*
X48712Y-42041D01*
X48693Y-42060D01*
G54D12*
X50140Y-39046D02*
X50140Y-38456D01*
X50281Y-38456D01*
X50365Y-38484D01*
X50421Y-38540D01*
X50449Y-38596D01*
X50478Y-38709D01*
X50478Y-38793D01*
X50449Y-38906D01*
X50421Y-38962D01*
X50365Y-39018D01*
X50281Y-39046D01*
X50140Y-39046D01*
X50731Y-39046D02*
X50731Y-38652D01*
X50731Y-38765D02*
X50759Y-38709D01*
X50787Y-38681D01*
X50843Y-38652D01*
X50899Y-38652D01*
X51349Y-38652D02*
X51349Y-39046D01*
X51096Y-38652D02*
X51096Y-38962D01*
X51124Y-39018D01*
X51181Y-39046D01*
X51265Y-39046D01*
X51321Y-39018D01*
X51349Y-38990D01*
X51631Y-39046D02*
X51631Y-38652D01*
X51631Y-38709D02*
X51659Y-38681D01*
X51715Y-38652D01*
X51799Y-38652D01*
X51856Y-38681D01*
X51884Y-38737D01*
X51884Y-39046D01*
X51884Y-38737D02*
X51912Y-38681D01*
X51968Y-38652D01*
X52052Y-38652D01*
X52109Y-38681D01*
X52137Y-38737D01*
X52137Y-39046D01*
X52868Y-39046D02*
X52868Y-38456D01*
X53149Y-38652D02*
X53149Y-39046D01*
X53149Y-38709D02*
X53177Y-38681D01*
X53233Y-38652D01*
X53318Y-38652D01*
X53374Y-38681D01*
X53402Y-38737D01*
X53402Y-39046D01*
G54D11*
X59598Y-55258D02*
X59580Y-55277D01*
X59523Y-55296D01*
X59486Y-55296D01*
X59430Y-55277D01*
X59392Y-55239D01*
X59373Y-55202D01*
X59355Y-55127D01*
X59355Y-55071D01*
X59373Y-54996D01*
X59392Y-54958D01*
X59430Y-54921D01*
X59486Y-54902D01*
X59523Y-54902D01*
X59580Y-54921D01*
X59598Y-54940D01*
X59711Y-54902D02*
X59842Y-55296D01*
X59973Y-54902D01*
X60386Y-54940D02*
X60404Y-54921D01*
X60442Y-54902D01*
X60536Y-54902D01*
X60573Y-54921D01*
X60592Y-54940D01*
X60611Y-54977D01*
X60611Y-55014D01*
X60592Y-55071D01*
X60367Y-55296D01*
X60611Y-55296D01*
X61154Y-54902D02*
X61229Y-54902D01*
X61267Y-54921D01*
X61304Y-54958D01*
X61323Y-55033D01*
X61323Y-55164D01*
X61304Y-55239D01*
X61267Y-55277D01*
X61229Y-55296D01*
X61154Y-55296D01*
X61117Y-55277D01*
X61079Y-55239D01*
X61061Y-55164D01*
X61061Y-55033D01*
X61079Y-54958D01*
X61117Y-54921D01*
X61154Y-54902D01*
X61661Y-55033D02*
X61661Y-55296D01*
X61492Y-55033D02*
X61492Y-55239D01*
X61511Y-55277D01*
X61548Y-55296D01*
X61604Y-55296D01*
X61642Y-55277D01*
X61661Y-55258D01*
X61792Y-55033D02*
X61942Y-55033D01*
X61848Y-54902D02*
X61848Y-55239D01*
X61867Y-55277D01*
X61904Y-55296D01*
X61942Y-55296D01*
X54433Y-55258D02*
X54415Y-55277D01*
X54358Y-55296D01*
X54321Y-55296D01*
X54265Y-55277D01*
X54227Y-55239D01*
X54208Y-55202D01*
X54190Y-55127D01*
X54190Y-55071D01*
X54208Y-54996D01*
X54227Y-54958D01*
X54265Y-54921D01*
X54321Y-54902D01*
X54358Y-54902D01*
X54415Y-54921D01*
X54433Y-54940D01*
X54546Y-54902D02*
X54677Y-55296D01*
X54808Y-54902D01*
X55146Y-55296D02*
X54921Y-55296D01*
X55033Y-55296D02*
X55033Y-54902D01*
X54996Y-54958D01*
X54958Y-54996D01*
X54921Y-55014D01*
X55689Y-54902D02*
X55764Y-54902D01*
X55802Y-54921D01*
X55839Y-54958D01*
X55858Y-55033D01*
X55858Y-55164D01*
X55839Y-55239D01*
X55802Y-55277D01*
X55764Y-55296D01*
X55689Y-55296D01*
X55652Y-55277D01*
X55614Y-55239D01*
X55596Y-55164D01*
X55596Y-55033D01*
X55614Y-54958D01*
X55652Y-54921D01*
X55689Y-54902D01*
X56196Y-55033D02*
X56196Y-55296D01*
X56027Y-55033D02*
X56027Y-55239D01*
X56046Y-55277D01*
X56083Y-55296D01*
X56139Y-55296D01*
X56177Y-55277D01*
X56196Y-55258D01*
X56327Y-55033D02*
X56477Y-55033D01*
X56383Y-54902D02*
X56383Y-55239D01*
X56402Y-55277D01*
X56439Y-55296D01*
X56477Y-55296D01*
G54D12*
X65410Y-49254D02*
X65494Y-49282D01*
X65635Y-49282D01*
X65691Y-49254D01*
X65719Y-49226D01*
X65748Y-49170D01*
X65748Y-49114D01*
X65719Y-49057D01*
X65691Y-49029D01*
X65635Y-49001D01*
X65523Y-48973D01*
X65466Y-48945D01*
X65438Y-48917D01*
X65410Y-48861D01*
X65410Y-48804D01*
X65438Y-48748D01*
X65466Y-48720D01*
X65523Y-48692D01*
X65663Y-48692D01*
X65748Y-48720D01*
X66226Y-49254D02*
X66169Y-49282D01*
X66057Y-49282D01*
X66001Y-49254D01*
X65973Y-49198D01*
X65973Y-48973D01*
X66001Y-48917D01*
X66057Y-48889D01*
X66169Y-48889D01*
X66226Y-48917D01*
X66254Y-48973D01*
X66254Y-49029D01*
X65973Y-49086D01*
X66507Y-48889D02*
X66507Y-49282D01*
X66507Y-48945D02*
X66535Y-48917D01*
X66591Y-48889D01*
X66676Y-48889D01*
X66732Y-48917D01*
X66760Y-48973D01*
X66760Y-49282D01*
X67013Y-49254D02*
X67069Y-49282D01*
X67182Y-49282D01*
X67238Y-49254D01*
X67266Y-49198D01*
X67266Y-49170D01*
X67238Y-49114D01*
X67182Y-49086D01*
X67097Y-49086D01*
X67041Y-49057D01*
X67013Y-49001D01*
X67013Y-48973D01*
X67041Y-48917D01*
X67097Y-48889D01*
X67182Y-48889D01*
X67238Y-48917D01*
X65579Y-43692D02*
X65916Y-43692D01*
X65748Y-44282D02*
X65748Y-43692D01*
X66113Y-44282D02*
X66113Y-43889D01*
X66113Y-44001D02*
X66141Y-43945D01*
X66169Y-43917D01*
X66226Y-43889D01*
X66282Y-43889D01*
X66479Y-44282D02*
X66479Y-43889D01*
X66479Y-43692D02*
X66451Y-43720D01*
X66479Y-43748D01*
X66507Y-43720D01*
X66479Y-43692D01*
X66479Y-43748D01*
X67013Y-43889D02*
X67013Y-44367D01*
X66985Y-44423D01*
X66957Y-44451D01*
X66901Y-44479D01*
X66816Y-44479D01*
X66760Y-44451D01*
X67013Y-44254D02*
X66957Y-44282D01*
X66844Y-44282D01*
X66788Y-44254D01*
X66760Y-44226D01*
X66732Y-44170D01*
X66732Y-44001D01*
X66760Y-43945D01*
X66788Y-43917D01*
X66844Y-43889D01*
X66957Y-43889D01*
X67013Y-43917D01*
X65846Y-44637D02*
X65958Y-44637D01*
X66015Y-44665D01*
X66071Y-44721D01*
X66099Y-44834D01*
X66099Y-45030D01*
X66071Y-45143D01*
X66015Y-45199D01*
X65958Y-45227D01*
X65846Y-45227D01*
X65790Y-45199D01*
X65733Y-45143D01*
X65705Y-45030D01*
X65705Y-44834D01*
X65733Y-44721D01*
X65790Y-44665D01*
X65846Y-44637D01*
X66605Y-44834D02*
X66605Y-45227D01*
X66352Y-44834D02*
X66352Y-45143D01*
X66380Y-45199D01*
X66437Y-45227D01*
X66521Y-45227D01*
X66577Y-45199D01*
X66605Y-45171D01*
X66802Y-44834D02*
X67027Y-44834D01*
X66886Y-44637D02*
X66886Y-45143D01*
X66915Y-45199D01*
X66971Y-45227D01*
X67027Y-45227D01*
X58633Y-37640D02*
X59083Y-37640D01*
X54696Y-37640D02*
X55146Y-37640D01*
X54921Y-37865D02*
X54921Y-37415D01*
G54D13*
X53565Y-45281D02*
X50765Y-45281D01*
X50765Y-45281D02*
X50765Y-44481D01*
X50765Y-44481D02*
X53565Y-44481D01*
X53565Y-44481D02*
X53565Y-45281D01*
X53565Y-45081D02*
X53365Y-45281D01*
X62423Y-45872D02*
X59623Y-45872D01*
X59623Y-45872D02*
X59623Y-45072D01*
X59623Y-45072D02*
X62423Y-45072D01*
X62423Y-45072D02*
X62423Y-45872D01*
X62423Y-45672D02*
X62223Y-45872D01*
X60568Y-38891D02*
X63368Y-38891D01*
X63368Y-38891D02*
X63368Y-39691D01*
X63368Y-39691D02*
X60568Y-39691D01*
X60568Y-39691D02*
X60568Y-38891D01*
X60568Y-39091D02*
X60768Y-38891D01*
X52974Y-48037D02*
X50174Y-48037D01*
X50174Y-48037D02*
X50174Y-47237D01*
X50174Y-47237D02*
X52974Y-47237D01*
X52974Y-47237D02*
X52974Y-48037D01*
X52974Y-47837D02*
X52774Y-48037D01*
X59229Y-46450D02*
X62029Y-46450D01*
X62029Y-46450D02*
X62029Y-47250D01*
X62029Y-47250D02*
X59229Y-47250D01*
X59229Y-47250D02*
X59229Y-46450D01*
X59229Y-46650D02*
X59429Y-46450D01*
X64392Y-50400D02*
X61592Y-50400D01*
X61592Y-50400D02*
X61592Y-49600D01*
X61592Y-49600D02*
X64392Y-49600D01*
X64392Y-49600D02*
X64392Y-50400D01*
X64392Y-50200D02*
X64192Y-50400D01*
X54811Y-39803D02*
X55211Y-39803D01*
X55211Y-39803D02*
X55211Y-39403D01*
X55211Y-39403D02*
X58411Y-39403D01*
X58411Y-39403D02*
X58411Y-40203D01*
X58411Y-40203D02*
X55211Y-40203D01*
X55211Y-40203D02*
X55211Y-39803D01*
X55211Y-39603D02*
X55411Y-39403D01*
X58811Y-39803D02*
X58411Y-39803D01*
X53692Y-42913D02*
X53292Y-42913D01*
X53292Y-42913D02*
X53292Y-43313D01*
X53292Y-43313D02*
X50092Y-43313D01*
X50092Y-43313D02*
X50092Y-42513D01*
X50092Y-42513D02*
X53292Y-42513D01*
X53292Y-42513D02*
X53292Y-42913D01*
X53292Y-43113D02*
X53092Y-43313D01*
X49692Y-42913D02*
X50092Y-42913D01*
X60322Y-40433D02*
X60722Y-40433D01*
X60722Y-40433D02*
X60722Y-40033D01*
X60722Y-40033D02*
X63922Y-40033D01*
X63922Y-40033D02*
X63922Y-40833D01*
X63922Y-40833D02*
X60722Y-40833D01*
X60722Y-40833D02*
X60722Y-40433D01*
X60722Y-40233D02*
X60922Y-40033D01*
X64322Y-40433D02*
X63922Y-40433D01*
G54D14*
X50771Y-38295D02*
X50771Y-37295D01*
X50771Y-37295D02*
X52771Y-37295D01*
X52771Y-37295D02*
X52771Y-38295D01*
X52771Y-38295D02*
X50771Y-38295D01*
X54314Y-54633D02*
X54314Y-53633D01*
X54314Y-53633D02*
X56314Y-53633D01*
X56314Y-53633D02*
X56314Y-54633D01*
X56314Y-54633D02*
X54314Y-54633D01*
X59629Y-54633D02*
X59629Y-53633D01*
X59629Y-53633D02*
X61629Y-53633D01*
X61629Y-53633D02*
X61629Y-54633D01*
X61629Y-54633D02*
X59629Y-54633D01*
X66759Y-43401D02*
X65759Y-43401D01*
X65759Y-43401D02*
X65759Y-41401D01*
X65759Y-41401D02*
X66759Y-41401D01*
X66759Y-41401D02*
X66759Y-43401D01*
X58389Y-37295D02*
X58389Y-38295D01*
X58389Y-38295D02*
X55389Y-38295D01*
X55389Y-38295D02*
X55389Y-37295D01*
X55389Y-37295D02*
X58389Y-37295D01*
X57389Y-38295D02*
X57389Y-37295D01*
X50074Y-50303D02*
X50074Y-49303D01*
X50074Y-49303D02*
X53074Y-49303D01*
X53074Y-49303D02*
X53074Y-50303D01*
X53074Y-50303D02*
X50074Y-50303D01*
X51074Y-49303D02*
X51074Y-50303D01*
X65854Y-48547D02*
X64854Y-48547D01*
X64854Y-48547D02*
X64854Y-45547D01*
X64854Y-45547D02*
X65854Y-45547D01*
X65854Y-45547D02*
X65854Y-48547D01*
X64854Y-47547D02*
X65854Y-47547D01*
G54D15*
X57889Y-40881D02*
X57889Y-48881D01*
X55889Y-48881D02*
X55889Y-40881D01*
X55889Y-40881D02*
X57889Y-40881D01*
X57389Y-40881D02*
X57389Y-41381D01*
X57389Y-41381D02*
X56389Y-41381D01*
X56389Y-41381D02*
X56389Y-40881D01*
X57889Y-48881D02*
X55889Y-48881D01*
G54D13*
X53574Y-39763D02*
X53174Y-39763D01*
X53174Y-39763D02*
X53174Y-40163D01*
X53174Y-40163D02*
X49974Y-40163D01*
X49974Y-40163D02*
X49974Y-39363D01*
X49974Y-39363D02*
X53174Y-39363D01*
X53174Y-39363D02*
X53174Y-39763D01*
X53174Y-39963D02*
X52974Y-40163D01*
X49574Y-39763D02*
X49974Y-39763D01*
X49574Y-41338D02*
X49974Y-41338D01*
X49974Y-41338D02*
X49974Y-40938D01*
X49974Y-40938D02*
X53174Y-40938D01*
X53174Y-40938D02*
X53174Y-41738D01*
X53174Y-41738D02*
X49974Y-41738D01*
X49974Y-41738D02*
X49974Y-41338D01*
X49974Y-41138D02*
X50174Y-40938D01*
X53574Y-41338D02*
X53174Y-41338D01*
X59889Y-37755D02*
X60289Y-37755D01*
X60289Y-37755D02*
X60289Y-37355D01*
X60289Y-37355D02*
X63489Y-37355D01*
X63489Y-37355D02*
X63489Y-38155D01*
X63489Y-38155D02*
X60289Y-38155D01*
X60289Y-38155D02*
X60289Y-37755D01*
X60289Y-37555D02*
X60489Y-37355D01*
X63889Y-37755D02*
X63489Y-37755D01*
X53377Y-46456D02*
X52977Y-46456D01*
X52977Y-46456D02*
X52977Y-46856D01*
X52977Y-46856D02*
X49777Y-46856D01*
X49777Y-46856D02*
X49777Y-46056D01*
X49777Y-46056D02*
X52977Y-46056D01*
X52977Y-46056D02*
X52977Y-46456D01*
X52977Y-46656D02*
X52777Y-46856D01*
X49377Y-46456D02*
X49777Y-46456D01*
X59417Y-48818D02*
X59817Y-48818D01*
X59817Y-48818D02*
X59817Y-48418D01*
X59817Y-48418D02*
X63017Y-48418D01*
X63017Y-48418D02*
X63017Y-49218D01*
X63017Y-49218D02*
X59817Y-49218D01*
X59817Y-49218D02*
X59817Y-48818D01*
X59817Y-48618D02*
X60017Y-48418D01*
X63417Y-48818D02*
X63017Y-48818D01*
X63811Y-51771D02*
X63411Y-51771D01*
X63411Y-51771D02*
X63411Y-52171D01*
X63411Y-52171D02*
X60211Y-52171D01*
X60211Y-52171D02*
X60211Y-51371D01*
X60211Y-51371D02*
X63411Y-51371D01*
X63411Y-51371D02*
X63411Y-51771D01*
X63411Y-51971D02*
X63211Y-52171D01*
X59811Y-51771D02*
X60211Y-51771D01*
X48393Y-51771D02*
X48793Y-51771D01*
X48793Y-51771D02*
X48793Y-51371D01*
X48793Y-51371D02*
X51993Y-51371D01*
X51993Y-51371D02*
X51993Y-52171D01*
X51993Y-52171D02*
X48793Y-52171D01*
X48793Y-52171D02*
X48793Y-51771D01*
X48793Y-51571D02*
X48993Y-51371D01*
X52393Y-51771D02*
X51993Y-51771D01*
X57708Y-51771D02*
X57308Y-51771D01*
X57308Y-51771D02*
X57308Y-52171D01*
X57308Y-52171D02*
X54108Y-52171D01*
X54108Y-52171D02*
X54108Y-51371D01*
X54108Y-51371D02*
X57308Y-51371D01*
X57308Y-51371D02*
X57308Y-51771D01*
X57308Y-51971D02*
X57108Y-52171D01*
X53708Y-51771D02*
X54108Y-51771D01*
X60401Y-41732D02*
X60801Y-41732D01*
X60801Y-41732D02*
X60801Y-41332D01*
X60801Y-41332D02*
X64001Y-41332D01*
X64001Y-41332D02*
X64001Y-42132D01*
X64001Y-42132D02*
X60801Y-42132D01*
X60801Y-42132D02*
X60801Y-41732D01*
X60801Y-41532D02*
X61001Y-41332D01*
X64401Y-41732D02*
X64001Y-41732D01*
X64322Y-42952D02*
X63922Y-42952D01*
X63922Y-42952D02*
X63922Y-43352D01*
X63922Y-43352D02*
X60722Y-43352D01*
X60722Y-43352D02*
X60722Y-42552D01*
X60722Y-42552D02*
X63922Y-42552D01*
X63922Y-42552D02*
X63922Y-42952D01*
X63922Y-43152D02*
X63722Y-43352D01*
X60322Y-42952D02*
X60722Y-42952D01*
G54D14*
X66523Y-37531D02*
X66523Y-38531D01*
X65523Y-38531D02*
X65523Y-37531D01*
X66523Y-38531D02*
X65523Y-38531D01*
X65523Y-37531D02*
X66523Y-37531D01*
X66287Y-54594D02*
X65287Y-54594D01*
X65287Y-53594D02*
X66287Y-53594D01*
X65287Y-54594D02*
X65287Y-53594D01*
X66287Y-53594D02*
X66287Y-54594D01*
X49240Y-38452D02*
X48240Y-38452D01*
X48240Y-37452D02*
X49240Y-37452D01*
X48240Y-38452D02*
X48240Y-37452D01*
X49240Y-37452D02*
X49240Y-38452D01*
X49712Y-54633D02*
X48712Y-54633D01*
X48712Y-53633D02*
X49712Y-53633D01*
X48712Y-54633D02*
X48712Y-53633D01*
X49712Y-53633D02*
X49712Y-54633D01*
G54D16*
X52098Y-45024D02*
X52079Y-45043D01*
X52022Y-45062D01*
X51984Y-45062D01*
X51927Y-45043D01*
X51889Y-45005D01*
X51870Y-44967D01*
X51851Y-44891D01*
X51851Y-44834D01*
X51870Y-44758D01*
X51889Y-44719D01*
X51927Y-44681D01*
X51984Y-44662D01*
X52022Y-44662D01*
X52079Y-44681D01*
X52098Y-44700D01*
X52479Y-45062D02*
X52251Y-45062D01*
X52365Y-45062D02*
X52365Y-44662D01*
X52327Y-44719D01*
X52289Y-44758D01*
X52251Y-44777D01*
X60956Y-45615D02*
X60937Y-45634D01*
X60880Y-45653D01*
X60842Y-45653D01*
X60785Y-45634D01*
X60747Y-45596D01*
X60728Y-45558D01*
X60709Y-45481D01*
X60709Y-45424D01*
X60728Y-45348D01*
X60747Y-45310D01*
X60785Y-45272D01*
X60842Y-45253D01*
X60880Y-45253D01*
X60937Y-45272D01*
X60956Y-45291D01*
X61109Y-45291D02*
X61128Y-45272D01*
X61166Y-45253D01*
X61261Y-45253D01*
X61299Y-45272D01*
X61318Y-45291D01*
X61337Y-45329D01*
X61337Y-45367D01*
X61318Y-45424D01*
X61090Y-45653D01*
X61337Y-45653D01*
X61901Y-39434D02*
X61882Y-39453D01*
X61825Y-39472D01*
X61787Y-39472D01*
X61730Y-39453D01*
X61692Y-39415D01*
X61673Y-39377D01*
X61654Y-39300D01*
X61654Y-39243D01*
X61673Y-39167D01*
X61692Y-39129D01*
X61730Y-39091D01*
X61787Y-39072D01*
X61825Y-39072D01*
X61882Y-39091D01*
X61901Y-39110D01*
X62035Y-39072D02*
X62282Y-39072D01*
X62149Y-39224D01*
X62206Y-39224D01*
X62244Y-39243D01*
X62263Y-39262D01*
X62282Y-39300D01*
X62282Y-39396D01*
X62263Y-39434D01*
X62244Y-39453D01*
X62206Y-39472D01*
X62092Y-39472D01*
X62054Y-39453D01*
X62035Y-39434D01*
X51508Y-47780D02*
X51489Y-47799D01*
X51431Y-47818D01*
X51393Y-47818D01*
X51336Y-47799D01*
X51298Y-47761D01*
X51279Y-47723D01*
X51260Y-47647D01*
X51260Y-47590D01*
X51279Y-47513D01*
X51298Y-47475D01*
X51336Y-47437D01*
X51393Y-47418D01*
X51431Y-47418D01*
X51489Y-47437D01*
X51508Y-47456D01*
X51850Y-47552D02*
X51850Y-47818D01*
X51755Y-47399D02*
X51660Y-47685D01*
X51908Y-47685D01*
X60563Y-46993D02*
X60544Y-47012D01*
X60487Y-47031D01*
X60448Y-47031D01*
X60391Y-47012D01*
X60353Y-46974D01*
X60334Y-46936D01*
X60315Y-46859D01*
X60315Y-46802D01*
X60334Y-46726D01*
X60353Y-46688D01*
X60391Y-46650D01*
X60448Y-46631D01*
X60487Y-46631D01*
X60544Y-46650D01*
X60563Y-46669D01*
X60925Y-46631D02*
X60734Y-46631D01*
X60715Y-46821D01*
X60734Y-46802D01*
X60772Y-46783D01*
X60868Y-46783D01*
X60906Y-46802D01*
X60925Y-46821D01*
X60944Y-46859D01*
X60944Y-46955D01*
X60925Y-46993D01*
X60906Y-47012D01*
X60868Y-47031D01*
X60772Y-47031D01*
X60734Y-47012D01*
X60715Y-46993D01*
X62925Y-50142D02*
X62906Y-50161D01*
X62849Y-50180D01*
X62811Y-50180D01*
X62754Y-50161D01*
X62715Y-50123D01*
X62696Y-50085D01*
X62677Y-50009D01*
X62677Y-49952D01*
X62696Y-49876D01*
X62715Y-49838D01*
X62754Y-49800D01*
X62811Y-49780D01*
X62849Y-49780D01*
X62906Y-49800D01*
X62925Y-49819D01*
X63268Y-49780D02*
X63192Y-49780D01*
X63154Y-49800D01*
X63134Y-49819D01*
X63096Y-49876D01*
X63077Y-49952D01*
X63077Y-50104D01*
X63096Y-50142D01*
X63115Y-50161D01*
X63154Y-50180D01*
X63230Y-50180D01*
X63268Y-50161D01*
X63287Y-50142D01*
X63306Y-50104D01*
X63306Y-50009D01*
X63287Y-49971D01*
X63268Y-49952D01*
X63230Y-49933D01*
X63154Y-49933D01*
X63115Y-49952D01*
X63096Y-49971D01*
X63077Y-50009D01*
X56441Y-40051D02*
X56441Y-39501D01*
X56561Y-39501D01*
X56632Y-39528D01*
X56680Y-39580D01*
X56703Y-39632D01*
X56727Y-39737D01*
X56727Y-39816D01*
X56703Y-39921D01*
X56680Y-39973D01*
X56632Y-40025D01*
X56561Y-40051D01*
X56441Y-40051D01*
X57203Y-40051D02*
X56918Y-40051D01*
X57061Y-40051D02*
X57061Y-39501D01*
X57013Y-39580D01*
X56965Y-39632D01*
X56918Y-39659D01*
X51402Y-43162D02*
X51402Y-42612D01*
X51521Y-42612D01*
X51593Y-42638D01*
X51640Y-42690D01*
X51664Y-42743D01*
X51688Y-42847D01*
X51688Y-42926D01*
X51664Y-43031D01*
X51640Y-43083D01*
X51593Y-43136D01*
X51521Y-43162D01*
X51402Y-43162D01*
X51878Y-42664D02*
X51902Y-42638D01*
X51950Y-42612D01*
X52069Y-42612D01*
X52116Y-42638D01*
X52140Y-42664D01*
X52164Y-42716D01*
X52164Y-42769D01*
X52140Y-42847D01*
X51854Y-43162D01*
X52164Y-43162D01*
X61953Y-40681D02*
X61953Y-40131D01*
X62072Y-40131D01*
X62144Y-40158D01*
X62191Y-40210D01*
X62215Y-40262D01*
X62239Y-40367D01*
X62239Y-40446D01*
X62215Y-40550D01*
X62191Y-40603D01*
X62144Y-40655D01*
X62072Y-40681D01*
X61953Y-40681D01*
X62406Y-40131D02*
X62715Y-40131D01*
X62549Y-40341D01*
X62620Y-40341D01*
X62668Y-40367D01*
X62691Y-40393D01*
X62715Y-40446D01*
X62715Y-40577D01*
X62691Y-40629D01*
X62668Y-40655D01*
X62620Y-40681D01*
X62477Y-40681D01*
X62429Y-40655D01*
X62406Y-40629D01*
G54D14*
X51550Y-37180D02*
X51550Y-36880D01*
X51664Y-36880D01*
X51693Y-36895D01*
X51707Y-36909D01*
X51721Y-36938D01*
X51721Y-36980D01*
X51707Y-37009D01*
X51693Y-37023D01*
X51664Y-37038D01*
X51550Y-37038D01*
X52007Y-37180D02*
X51835Y-37180D01*
X51921Y-37180D02*
X51921Y-36880D01*
X51893Y-36923D01*
X51864Y-36952D01*
X51835Y-36966D01*
X55093Y-53519D02*
X55093Y-53219D01*
X55207Y-53219D01*
X55236Y-53233D01*
X55250Y-53248D01*
X55264Y-53276D01*
X55264Y-53319D01*
X55250Y-53348D01*
X55236Y-53362D01*
X55207Y-53376D01*
X55093Y-53376D01*
X55379Y-53248D02*
X55393Y-53233D01*
X55422Y-53219D01*
X55493Y-53219D01*
X55522Y-53233D01*
X55536Y-53248D01*
X55550Y-53276D01*
X55550Y-53305D01*
X55536Y-53348D01*
X55364Y-53519D01*
X55550Y-53519D01*
X60408Y-53519D02*
X60408Y-53219D01*
X60522Y-53219D01*
X60551Y-53233D01*
X60565Y-53248D01*
X60579Y-53276D01*
X60579Y-53319D01*
X60565Y-53348D01*
X60551Y-53362D01*
X60522Y-53376D01*
X60408Y-53376D01*
X60679Y-53219D02*
X60865Y-53219D01*
X60765Y-53333D01*
X60808Y-53333D01*
X60837Y-53348D01*
X60851Y-53362D01*
X60865Y-53391D01*
X60865Y-53462D01*
X60851Y-53491D01*
X60837Y-53505D01*
X60808Y-53519D01*
X60722Y-53519D01*
X60694Y-53505D01*
X60679Y-53491D01*
X65645Y-42623D02*
X65345Y-42623D01*
X65345Y-42508D01*
X65359Y-42480D01*
X65374Y-42465D01*
X65402Y-42451D01*
X65445Y-42451D01*
X65474Y-42465D01*
X65488Y-42480D01*
X65502Y-42508D01*
X65502Y-42623D01*
X65445Y-42194D02*
X65645Y-42194D01*
X65331Y-42265D02*
X65545Y-42337D01*
X65545Y-42151D01*
X56494Y-38826D02*
X56494Y-38426D01*
X56646Y-38426D01*
X56685Y-38445D01*
X56704Y-38464D01*
X56723Y-38502D01*
X56723Y-38559D01*
X56704Y-38597D01*
X56685Y-38616D01*
X56646Y-38635D01*
X56494Y-38635D01*
X57085Y-38426D02*
X56894Y-38426D01*
X56875Y-38616D01*
X56894Y-38597D01*
X56932Y-38578D01*
X57027Y-38578D01*
X57065Y-38597D01*
X57085Y-38616D01*
X57104Y-38654D01*
X57104Y-38750D01*
X57085Y-38788D01*
X57065Y-38807D01*
X57027Y-38826D01*
X56932Y-38826D01*
X56894Y-38807D01*
X56875Y-38788D01*
X50352Y-49196D02*
X50219Y-49006D01*
X50123Y-49196D02*
X50123Y-48796D01*
X50276Y-48796D01*
X50314Y-48815D01*
X50333Y-48834D01*
X50352Y-48872D01*
X50352Y-48930D01*
X50333Y-48968D01*
X50314Y-48987D01*
X50276Y-49006D01*
X50123Y-49006D01*
X50466Y-48796D02*
X50600Y-49196D01*
X50733Y-48796D01*
X51076Y-49196D02*
X50847Y-49196D01*
X50961Y-49196D02*
X50961Y-48796D01*
X50923Y-48853D01*
X50885Y-48891D01*
X50847Y-48910D01*
X64747Y-48269D02*
X64557Y-48402D01*
X64747Y-48498D02*
X64347Y-48498D01*
X64347Y-48345D01*
X64366Y-48307D01*
X64385Y-48288D01*
X64424Y-48269D01*
X64481Y-48269D01*
X64519Y-48288D01*
X64538Y-48307D01*
X64557Y-48345D01*
X64557Y-48498D01*
X64347Y-48155D02*
X64747Y-48021D01*
X64347Y-47888D01*
X64385Y-47774D02*
X64366Y-47755D01*
X64347Y-47717D01*
X64347Y-47621D01*
X64366Y-47583D01*
X64385Y-47564D01*
X64424Y-47545D01*
X64462Y-47545D01*
X64519Y-47564D01*
X64747Y-47793D01*
X64747Y-47545D01*
G54D17*
X57061Y-43224D02*
X57546Y-43224D01*
X57604Y-43203D01*
X57632Y-43181D01*
X57661Y-43139D01*
X57661Y-43053D01*
X57632Y-43010D01*
X57604Y-42989D01*
X57546Y-42967D01*
X57061Y-42967D01*
X57661Y-42517D02*
X57661Y-42774D01*
X57661Y-42646D02*
X57061Y-42646D01*
X57146Y-42689D01*
X57204Y-42731D01*
X57232Y-42774D01*
G54D13*
G54D17*
X56061Y-46560D02*
X56061Y-46303D01*
X56661Y-46431D02*
X56061Y-46431D01*
X56661Y-45939D02*
X56661Y-46153D01*
X56061Y-46153D01*
X56061Y-45703D02*
X56061Y-45660D01*
X56089Y-45617D01*
X56118Y-45596D01*
X56175Y-45574D01*
X56289Y-45553D01*
X56432Y-45553D01*
X56546Y-45574D01*
X56604Y-45596D01*
X56632Y-45617D01*
X56661Y-45660D01*
X56661Y-45703D01*
X56632Y-45746D01*
X56604Y-45767D01*
X56546Y-45789D01*
X56432Y-45810D01*
X56289Y-45810D01*
X56175Y-45789D01*
X56118Y-45767D01*
X56089Y-45746D01*
X56061Y-45703D01*
X56318Y-45296D02*
X56289Y-45339D01*
X56261Y-45360D01*
X56204Y-45381D01*
X56175Y-45381D01*
X56118Y-45360D01*
X56089Y-45339D01*
X56061Y-45296D01*
X56061Y-45210D01*
X56089Y-45167D01*
X56118Y-45146D01*
X56175Y-45124D01*
X56204Y-45124D01*
X56261Y-45146D01*
X56289Y-45167D01*
X56318Y-45210D01*
X56318Y-45296D01*
X56346Y-45339D01*
X56375Y-45360D01*
X56432Y-45381D01*
X56546Y-45381D01*
X56604Y-45360D01*
X56632Y-45339D01*
X56661Y-45296D01*
X56661Y-45210D01*
X56632Y-45167D01*
X56604Y-45146D01*
X56546Y-45124D01*
X56432Y-45124D01*
X56375Y-45146D01*
X56346Y-45167D01*
X56318Y-45210D01*
X56261Y-44739D02*
X56661Y-44739D01*
X56032Y-44846D02*
X56461Y-44953D01*
X56461Y-44674D01*
X56661Y-44503D02*
X56061Y-44503D01*
X56061Y-44396D01*
X56089Y-44331D01*
X56146Y-44289D01*
X56204Y-44267D01*
X56318Y-44246D01*
X56404Y-44246D01*
X56518Y-44267D01*
X56575Y-44289D01*
X56632Y-44331D01*
X56661Y-44396D01*
X56661Y-44503D01*
G54D13*
G54D16*
X50704Y-40012D02*
X50537Y-39750D01*
X50418Y-40012D02*
X50418Y-39462D01*
X50608Y-39462D01*
X50656Y-39488D01*
X50680Y-39514D01*
X50704Y-39567D01*
X50704Y-39645D01*
X50680Y-39698D01*
X50656Y-39724D01*
X50608Y-39750D01*
X50418Y-39750D01*
X51180Y-40012D02*
X50894Y-40012D01*
X51037Y-40012D02*
X51037Y-39462D01*
X50989Y-39541D01*
X50942Y-39593D01*
X50894Y-39619D01*
X50704Y-41587D02*
X50537Y-41325D01*
X50418Y-41587D02*
X50418Y-41037D01*
X50608Y-41037D01*
X50656Y-41063D01*
X50680Y-41089D01*
X50704Y-41142D01*
X50704Y-41220D01*
X50680Y-41273D01*
X50656Y-41299D01*
X50608Y-41325D01*
X50418Y-41325D01*
X50894Y-41089D02*
X50918Y-41063D01*
X50965Y-41037D01*
X51085Y-41037D01*
X51132Y-41063D01*
X51156Y-41089D01*
X51180Y-41142D01*
X51180Y-41194D01*
X51156Y-41273D01*
X50870Y-41587D01*
X51180Y-41587D01*
X60940Y-38044D02*
X60773Y-37782D01*
X60654Y-38044D02*
X60654Y-37494D01*
X60845Y-37494D01*
X60892Y-37520D01*
X60916Y-37546D01*
X60940Y-37598D01*
X60940Y-37677D01*
X60916Y-37729D01*
X60892Y-37755D01*
X60845Y-37782D01*
X60654Y-37782D01*
X61106Y-37494D02*
X61416Y-37494D01*
X61249Y-37703D01*
X61321Y-37703D01*
X61368Y-37729D01*
X61392Y-37755D01*
X61416Y-37808D01*
X61416Y-37939D01*
X61392Y-37991D01*
X61368Y-38017D01*
X61321Y-38044D01*
X61178Y-38044D01*
X61130Y-38017D01*
X61106Y-37991D01*
X50507Y-46705D02*
X50340Y-46443D01*
X50221Y-46705D02*
X50221Y-46155D01*
X50411Y-46155D01*
X50459Y-46181D01*
X50483Y-46207D01*
X50507Y-46260D01*
X50507Y-46338D01*
X50483Y-46391D01*
X50459Y-46417D01*
X50411Y-46443D01*
X50221Y-46443D01*
X50935Y-46338D02*
X50935Y-46705D01*
X50816Y-46129D02*
X50697Y-46522D01*
X51007Y-46522D01*
X60546Y-49067D02*
X60379Y-48805D01*
X60260Y-49067D02*
X60260Y-48517D01*
X60451Y-48517D01*
X60498Y-48543D01*
X60522Y-48570D01*
X60546Y-48622D01*
X60546Y-48701D01*
X60522Y-48753D01*
X60498Y-48779D01*
X60451Y-48805D01*
X60260Y-48805D01*
X60998Y-48517D02*
X60760Y-48517D01*
X60737Y-48779D01*
X60760Y-48753D01*
X60808Y-48727D01*
X60927Y-48727D01*
X60975Y-48753D01*
X60998Y-48779D01*
X61022Y-48831D01*
X61022Y-48962D01*
X60998Y-49015D01*
X60975Y-49041D01*
X60927Y-49067D01*
X60808Y-49067D01*
X60760Y-49041D01*
X60737Y-49015D01*
X60743Y-52020D02*
X60576Y-51758D01*
X60457Y-52020D02*
X60457Y-51470D01*
X60648Y-51470D01*
X60695Y-51496D01*
X60719Y-51522D01*
X60743Y-51575D01*
X60743Y-51653D01*
X60719Y-51706D01*
X60695Y-51732D01*
X60648Y-51758D01*
X60457Y-51758D01*
X61172Y-51470D02*
X61076Y-51470D01*
X61029Y-51496D01*
X61005Y-51522D01*
X60957Y-51601D01*
X60933Y-51706D01*
X60933Y-51915D01*
X60957Y-51968D01*
X60981Y-51994D01*
X61029Y-52020D01*
X61124Y-52020D01*
X61172Y-51994D01*
X61195Y-51968D01*
X61219Y-51915D01*
X61219Y-51784D01*
X61195Y-51732D01*
X61172Y-51706D01*
X61124Y-51679D01*
X61029Y-51679D01*
X60981Y-51706D01*
X60957Y-51732D01*
X60933Y-51784D01*
X49326Y-52020D02*
X49159Y-51758D01*
X49040Y-52020D02*
X49040Y-51470D01*
X49230Y-51470D01*
X49278Y-51496D01*
X49302Y-51522D01*
X49326Y-51575D01*
X49326Y-51653D01*
X49302Y-51706D01*
X49278Y-51732D01*
X49230Y-51758D01*
X49040Y-51758D01*
X49492Y-51470D02*
X49826Y-51470D01*
X49611Y-52020D01*
X54641Y-52020D02*
X54474Y-51758D01*
X54355Y-52020D02*
X54355Y-51470D01*
X54545Y-51470D01*
X54593Y-51496D01*
X54617Y-51522D01*
X54641Y-51575D01*
X54641Y-51653D01*
X54617Y-51706D01*
X54593Y-51732D01*
X54545Y-51758D01*
X54355Y-51758D01*
X54926Y-51706D02*
X54879Y-51679D01*
X54855Y-51653D01*
X54831Y-51601D01*
X54831Y-51575D01*
X54855Y-51522D01*
X54879Y-51496D01*
X54926Y-51470D01*
X55022Y-51470D01*
X55069Y-51496D01*
X55093Y-51522D01*
X55117Y-51575D01*
X55117Y-51601D01*
X55093Y-51653D01*
X55069Y-51679D01*
X55022Y-51706D01*
X54926Y-51706D01*
X54879Y-51732D01*
X54855Y-51758D01*
X54831Y-51810D01*
X54831Y-51915D01*
X54855Y-51968D01*
X54879Y-51994D01*
X54926Y-52020D01*
X55022Y-52020D01*
X55069Y-51994D01*
X55093Y-51968D01*
X55117Y-51915D01*
X55117Y-51810D01*
X55093Y-51758D01*
X55069Y-51732D01*
X55022Y-51706D01*
X61530Y-41981D02*
X61364Y-41719D01*
X61245Y-41981D02*
X61245Y-41431D01*
X61435Y-41431D01*
X61483Y-41457D01*
X61507Y-41483D01*
X61530Y-41535D01*
X61530Y-41614D01*
X61507Y-41666D01*
X61483Y-41692D01*
X61435Y-41719D01*
X61245Y-41719D01*
X61768Y-41981D02*
X61864Y-41981D01*
X61911Y-41954D01*
X61935Y-41928D01*
X61983Y-41850D01*
X62007Y-41745D01*
X62007Y-41535D01*
X61983Y-41483D01*
X61959Y-41457D01*
X61911Y-41431D01*
X61816Y-41431D01*
X61768Y-41457D01*
X61745Y-41483D01*
X61721Y-41535D01*
X61721Y-41666D01*
X61745Y-41719D01*
X61768Y-41745D01*
X61816Y-41771D01*
X61911Y-41771D01*
X61959Y-41745D01*
X61983Y-41719D01*
X62007Y-41666D01*
X61489Y-43162D02*
X61322Y-42900D01*
X61203Y-43162D02*
X61203Y-42612D01*
X61394Y-42612D01*
X61441Y-42638D01*
X61465Y-42664D01*
X61489Y-42716D01*
X61489Y-42795D01*
X61465Y-42847D01*
X61441Y-42874D01*
X61394Y-42900D01*
X61203Y-42900D01*
X61965Y-43162D02*
X61680Y-43162D01*
X61822Y-43162D02*
X61822Y-42612D01*
X61775Y-42690D01*
X61727Y-42743D01*
X61680Y-42769D01*
X62275Y-42612D02*
X62322Y-42612D01*
X62370Y-42638D01*
X62394Y-42664D01*
X62418Y-42716D01*
X62441Y-42821D01*
X62441Y-42952D01*
X62418Y-43057D01*
X62394Y-43109D01*
X62370Y-43136D01*
X62322Y-43162D01*
X62275Y-43162D01*
X62227Y-43136D01*
X62203Y-43109D01*
X62180Y-43057D01*
X62156Y-42952D01*
X62156Y-42821D01*
X62180Y-42716D01*
X62203Y-42664D01*
X62227Y-42638D01*
X62275Y-42612D01*
G54D14*
M02*
