M48
;DRILL file {Pcbnew (2014-02-26 BZR 4721)-product} date Wednesday, 27 May 2015 16:47:53
;FORMAT={2:4/ absolute / inch / suppress leading zeros}
FMAT,2
INCH,TZ
T1C0.032
T2C0.040
T3C0.118
%
G90
G05
M72
T1
X48394Y-51772
X49378Y-46457
X49575Y-39764
X49575Y-41339
X49693Y-42913
X50575Y-47638
X51165Y-44882
X52394Y-51772
X52575Y-47638
X53165Y-44882
X53378Y-46457
X53575Y-39764
X53575Y-41339
X53693Y-42913
X53709Y-51772
X54811Y-39803
X55390Y-41882
X55390Y-42882
X55390Y-43882
X55390Y-44882
X55390Y-45882
X55390Y-46882
X55390Y-47882
X57709Y-51772
X58390Y-41882
X58390Y-42882
X58390Y-43882
X58390Y-44882
X58390Y-45882
X58390Y-46882
X58390Y-47882
X58811Y-39803
X59417Y-48819
X59630Y-46850
X59811Y-51772
X59890Y-37756
X60024Y-45472
X60323Y-40433
X60323Y-42953
X60402Y-41732
X60969Y-39291
X61630Y-46850
X61992Y-50000
X62024Y-45472
X62969Y-39291
X63417Y-48819
X63811Y-51772
X63890Y-37756
X63992Y-50000
X64323Y-40433
X64323Y-42953
X64402Y-41732
T2
X50575Y-49803
X51272Y-37795
X51575Y-49803
X52272Y-37795
X52575Y-49803
X54815Y-54134
X55815Y-54134
X55890Y-37795
X56890Y-37795
X57890Y-37795
X60130Y-54134
X61130Y-54134
X65354Y-46047
X65354Y-47047
X65354Y-48047
X66260Y-41902
X66260Y-42902
T3
X48740Y-37953
X49213Y-54134
X65787Y-54094
X66024Y-38031
T0
M30
